#!OML:ASF E:\Steps\Project 1\Capture day 1\Session 2\Subject.ASF
:FULLY-SPECIFIED
:DEGREES
163
root 7.77859 16.2828 31.1935 -153.204 0.0476935 178.229
lowerback -29.2981 -2.29668 -6.11862
upperback -0.742019 -1.5614 0.206176
thorax 14.8061 -1.35873 2.88106
lowerneck -8.15297 -2.20472 -0.462215
upperneck 11.6622 -3.23738 4.18337
head 4.91878 -1.24994 1.1637
rclavicle 3.03147e-015 -1.70955e-014
rhumerus -38.5518 -19.226 -78.2557
rradius 33.4278
rwrist -0.37981
rhand -6.31725 -56.1742
rfingers 7.12502
rthumb 19.5274 274.786
lclavicle 3.03147e-015 -1.70955e-014
lhumerus -33.3197 11.596 77.0596
lradius 25.5292
lwrist -2.99144
lhand -21.8639 -12.2314
lfingers 7.12502
lthumb 4.54015 17.7
rfemur -24.1669 7.17066 20.3695
rtibia 7.36216
rfoot -19.5228 -6.73317
rtoes -26.2967
lfemur -26.0927 -8.69736 -18.5652
ltibia 11.4329
lfoot -10.6606 6.80548
ltoes -48.3753
164
root 7.78735 16.2802 31.1998 -153.161 0.0985129 178.184
lowerback -29.2507 -2.26117 -6.15785
upperback -0.738534 -1.49689 0.158435
thorax 14.7806 -1.33041 2.87719
lowerneck -7.92938 -2.27851 -0.27342
upperneck 11.4642 -3.33513 4.0187
head 4.81655 -1.30792 1.07784
rclavicle -1.13307e-014 -3.06128e-014
rhumerus -38.6121 -19.3258 -78.2658
rradius 33.4835
rwrist -0.500633
rhand -6.28857 -55.9638
rfingers 7.12502
rthumb 19.5549 275
lclavicle -1.13307e-014 -3.06128e-014
lhumerus -33.3096 11.0954 77.2766
lradius 25.6515
lwrist -2.59972
lhand -21.9678 -12.0683
lfingers 7.12502
lthumb 4.43983 17.8651
rfemur -24.2454 7.37976 20.3055
rtibia 7.37556
rfoot -19.4872 -6.90442
rtoes -26.6987
lfemur -26.1836 -8.71296 -18.588
ltibia 11.5315
lfoot -10.7755 6.80237
ltoes -48.1248
165
root 7.7966 16.2822 31.207 -153.18 0.157753 178.256
lowerback -29.1305 -2.18558 -6.08982
upperback -0.72782 -1.41989 0.138996
thorax 14.729 -1.28776 2.85331
lowerneck -7.88303 -2.24687 -0.37954
upperneck 11.524 -3.29817 4.22774
head 4.83163 -1.27719 1.16281
rclavicle 2.5345e-015 -1.25234e-014
rhumerus -38.7354 -19.2432 -78.2838
rradius 33.5993
rwrist -0.761027
rhand -6.29307 -56.018
rfingers 7.12502
rthumb 19.5506 274.945
lclavicle 2.5345e-015 -1.25234e-014
lhumerus -33.2672 10.9662 77.3166
lradius 25.6777
lwrist -2.5636
lhand -21.9452 -12.1106
lfingers 7.12502
lthumb 4.46166 17.8224
rfemur -24.306 7.64427 20.3616
rtibia 7.43876
rfoot -19.4396 -7.05866
rtoes -26.7874
lfemur -26.2121 -8.80745 -18.4437
ltibia 11.5634
lfoot -10.8251 7.09446
ltoes -48.5919
166
root 7.80583 16.2846 31.2125 -153.174 0.175689 178.251
lowerback -29.0407 -2.1922 -6.12364
upperback -0.731222 -1.42397 0.160959
thorax 14.6852 -1.29043 2.89654
lowerneck -7.78959 -2.19984 -0.575079
upperneck 11.7314 -3.21757 4.33382
head 4.88243 -1.23206 1.23389
rclavicle -1.2424e-015 -9.74045e-015
rhumerus -38.8605 -19.121 -78.228
rradius 33.652
rwrist -0.854448
rhand -6.36272 -56.1983
rfingers 7.12502
rthumb 19.4836 274.758
lclavicle -1.2424e-015 -9.74045e-015
lhumerus -33.2424 11.3422 77.2125
lradius 25.653
lwrist -2.86502
lhand -21.7699 -12.2941
lfingers 7.12502
lthumb 4.63099 17.6353
rfemur -24.3915 7.29791 20.4619
rtibia 7.52893
rfoot -19.5293 -6.61011
rtoes -26.4316
lfemur -26.2549 -8.959 -18.3745
ltibia 11.5561
lfoot -10.7633 7.41605
ltoes -48.5858
167
root 7.81266 16.2832 31.215 -153.156 0.200036 178.153
lowerback -29.0667 -2.22785 -6.20496
upperback -0.68657 -1.43356 0.149935
thorax 14.751 -1.30025 2.92423
lowerneck -7.88512 -2.23596 -0.555876
upperneck 12.0526 -3.25525 4.19704
head 4.99596 -1.24781 1.18493
rclavicle -1.05356e-014 6.95746e-015
rhumerus -38.8408 -19.2039 -78.1621
rradius 33.6196
rwrist -0.767217
rhand -6.40195 -56.393
rfingers 7.12502
rthumb 19.4459 274.559
lclavicle -1.05356e-014 6.95746e-015
lhumerus -33.1276 11.6018 77.1664
lradius 25.5955
lwrist -3.04056
lhand -22.0849 -11.3692
lfingers 7.12502
lthumb 4.32681 18.5666
rfemur -24.4955 6.46569 20.5487
rtibia 7.66947
rfoot -19.7449 -5.73345
rtoes -26.0513
lfemur -26.3131 -8.87741 -18.507
ltibia 11.6193
lfoot -10.6932 7.36128
ltoes -48.5425
168
root 7.8217 16.2798 31.2177 -153.146 0.181952 178.069
lowerback -29.0567 -2.2353 -6.21342
upperback -0.655514 -1.42569 0.072662
thorax 14.7791 -1.29479 2.84772
lowerneck -7.94515 -2.23914 -0.251881
upperneck 12.2454 -3.26492 3.91961
head 5.05656 -1.2502 1.04794
rclavicle -5.46658e-016 3.12092e-014
rhumerus -38.8538 -19.3377 -78.2088
rradius 33.6121
rwrist -0.73388
rhand -6.4737 -56.7612
rfingers 7.12502
rthumb 19.3769 274.184
lclavicle -5.46658e-016 3.12092e-014
lhumerus -33.0137 11.4486 77.1412
lradius 25.5329
lwrist -2.9024
lhand -21.5671 -12.8045
lfingers 7.12502
lthumb 4.82679 17.1205
rfemur -24.5452 5.95338 20.61
rtibia 7.72089
rfoot -19.7847 -5.32725
rtoes -26.3353
lfemur -26.3772 -8.87948 -18.5612
ltibia 11.6735
lfoot -10.7301 7.2389
ltoes -48.3469
169
root 7.83152 16.2772 31.2192 -153.168 0.146891 178.065
lowerback -28.9719 -2.39984 -6.12794
upperback -0.662087 -1.69075 0.199779
thorax 14.7621 -1.40856 2.83749
lowerneck -7.88316 -2.08738 -0.437026
upperneck 12.3924 -3.0084 3.68209
head 5.08438 -1.14785 1.02226
rclavicle 9.39258e-015 3.97569e-015
rhumerus -38.8176 -18.6792 -78.2771
rradius 33.6574
rwrist -0.873815
rhand -6.42857 -57.0364
rfingers 7.12502
rthumb 19.4203 273.913
lclavicle 9.39258e-015 3.97569e-015
lhumerus -33.2545 11.8179 77.1382
lradius 25.6838
lwrist -2.78063
lhand -21.6248 -12.8542
lfingers 7.12502
lthumb 4.7711 17.0721
rfemur -24.4674 6.05806 20.6267
rtibia 7.63164
rfoot -19.7636 -5.38603
rtoes -25.5882
lfemur -26.3942 -9.0607 -18.4542
ltibia 11.7418
lfoot -10.9161 7.2476
ltoes -47.8792
170
root 7.84134 16.2777 31.2216 -153.207 0.196125 178.107
lowerback -28.8961 -2.30438 -6.02319
upperback -0.640031 -1.58966 0.129908
thorax 14.7388 -1.35215 2.74689
lowerneck -7.82176 -2.1165 -0.454948
upperneck 12.435 -3.06042 3.85272
head 5.09136 -1.15919 1.07544
rclavicle -9.44227e-016 1.09332e-014
rhumerus -39.0561 -18.6589 -78.3049
rradius 33.8818
rwrist -1.00068
rhand -6.18195 -56.8985
rfingers 7.12502
rthumb 19.6574 274.075
lclavicle -9.44227e-016 1.09332e-014
lhumerus -33.2759 11.5324 77.1579
lradius 25.8267
lwrist -2.71506
lhand -21.9102 -12.5583
lfingers 7.12502
lthumb 4.49548 17.374
rfemur -24.3954 6.43846 20.6178
rtibia 7.57029
rfoot -19.8422 -5.54872
rtoes -24.3404
lfemur -26.4159 -8.95275 -18.4074
ltibia 11.9137
lfoot -11.0088 7.2093
ltoes -48.1609
171
root 7.85165 16.2794 31.2254 -153.128 0.265188 178.154
lowerback -28.9222 -2.24115 -5.92668
upperback -0.664798 -1.5405 0.11732
thorax 14.7154 -1.32411 2.69946
lowerneck -7.78349 -2.11583 -0.719546
upperneck 12.5126 -3.06237 4.19048
head 5.11814 -1.14524 1.22418
rclavicle -1.05356e-014 1.35174e-014
rhumerus -39.2269 -18.6745 -78.2138
rradius 33.9269
rwrist -0.894106
rhand -6.01347 -56.6207
rfingers 7.12502
rthumb 19.8194 274.37
lclavicle -1.05356e-014 1.35174e-014
lhumerus -33.3366 11.6707 77.1162
lradius 25.8348
lwrist -2.96829
lhand -22.1697 -12.5032
lfingers 7.12502
lthumb 4.24494 17.4343
rfemur -24.5184 6.65924 20.634
rtibia 7.58389
rfoot -19.914 -5.61198
rtoes -23.8097
lfemur -26.5643 -8.99284 -18.2765
ltibia 12.0374
lfoot -11.0932 7.32139
ltoes -47.4515
172
root 7.86373 16.2813 31.2282 -153.097 0.287535 178.094
lowerback -28.8557 -2.27642 -5.98944
upperback -0.685587 -1.57427 0.130889
thorax 14.6647 -1.34288 2.73673
lowerneck -7.80703 -2.06865 -0.822152
upperneck 12.7229 -2.98409 4.19461
head 5.18662 -1.10418 1.24775
rclavicle 1.86361e-014 1.25234e-014
rhumerus -39.269 -18.7583 -78.0734
rradius 33.7768
rwrist -0.615174
rhand -6.08651 -56.7212
rfingers 7.12502
rthumb 19.7492 274.262
lclavicle 1.86361e-014 1.25234e-014
lhumerus -33.4342 11.876 77.0699
lradius 25.8379
lwrist -3.256
lhand -22.0657 -12.6662
lfingers 7.12502
lthumb 4.34529 17.2692
rfemur -24.5596 6.69852 20.573
rtibia 7.54496
rfoot -19.8613 -5.5454
rtoes -23.4501
lfemur -26.6104 -9.10418 -18.2574
ltibia 12.057
lfoot -11.1221 7.44921
ltoes -47.1335
173
root 7.87765 16.282 31.2304 -153.113 0.305041 178.02
lowerback -28.7916 -2.28282 -6.10949
upperback -0.654554 -1.53649 0.102467
thorax 14.6683 -1.33182 2.78763
lowerneck -7.81704 -2.06261 -0.624802
upperneck 13.0312 -2.95318 3.84517
head 5.2749 -1.0933 1.10903
rclavicle -5.96354e-015 -1.53064e-014
rhumerus -39.3187 -18.8955 -78.0262
rradius 33.7392
rwrist -0.565216
rhand -6.30434 -56.8659
rfingers 7.12502
rthumb 19.5398 274.096
lclavicle -5.96354e-015 -1.53064e-014
lhumerus -33.4503 11.4462 77.2187
lradius 25.9841
lwrist -3.02031
lhand -21.9932 -12.6676
lfingers 7.12502
lthumb 4.41536 17.2664
rfemur -24.5208 6.61927 20.5595
rtibia 7.50461
rfoot -19.8352 -5.43121
rtoes -23.7671
lfemur -26.5919 -8.92197 -18.3521
ltibia 12.059
lfoot -10.9901 7.46792
ltoes -48.6111
174
root 7.89169 16.2814 31.2316 -153.074 0.298229 178.054
lowerback -28.8011 -2.24836 -6.09836
upperback -0.632585 -1.48713 0.0767465
thorax 14.6926 -1.30818 2.77284
lowerneck -7.57531 -2.07494 -0.35047
upperneck 12.8377 -2.95966 3.52771
head 5.16514 -1.11258 0.966866
rclavicle -4.07509e-015 1.09332e-014
rhumerus -39.3632 -19.0372 -78.008
rradius 33.707
rwrist -0.588658
rhand -6.35772 -56.4052
rfingers 7.12502
rthumb 19.4884 274.552
lclavicle -4.07509e-015 1.09332e-014
lhumerus -33.4792 10.8833 77.3908
lradius 26.2123
lwrist -2.52233
lhand -21.9847 -12.443
lfingers 7.12502
lthumb 4.42359 17.4908
rfemur -24.5414 6.83263 20.6248
rtibia 7.53015
rfoot -19.9409 -5.63572
rtoes -24.0844
lfemur -26.6796 -8.90528 -18.2331
ltibia 12.1443
lfoot -11.0237 7.57231
ltoes -49.0511
175
root 7.89959 16.2767 31.2304 -153.059 0.355238 177.966
lowerback -28.8692 -2.23718 -6.12735
upperback -0.565183 -1.44158 0.0220574
thorax 14.7973 -1.28928 2.74509
lowerneck -7.49016 -2.066 -0.397297
upperneck 12.7765 -2.96109 3.72117
head 5.13545 -1.10298 1.03549
rclavicle 1.00386e-014 6.95746e-015
rhumerus -39.2909 -19.1212 -77.9747
rradius 33.6174
rwrist -0.494125
rhand -6.06617 -55.65
rfingers 7.12502
rthumb 19.7687 275.335
lclavicle 1.00386e-014 6.95746e-015
lhumerus -33.3996 10.8549 77.4041
lradius 26.2722
lwrist -2.34235
lhand -21.8439 -12.207
lfingers 7.12502
lthumb 4.55953 17.7239
rfemur -24.5564 6.95202 20.4983
rtibia 7.54756
rfoot -19.9986 -5.70111
rtoes -23.8539
lfemur -26.7768 -9.21461 -18.2265
ltibia 12.3185
lfoot -11.1789 7.84346
ltoes -48.6939
176
root 7.90738 16.2759 31.2329 -153.196 0.414011 177.795
lowerback -28.7618 -2.25124 -6.23446
upperback -0.460073 -1.40318 -0.0341368
thorax 14.8663 -1.27473 2.76034
lowerneck -7.57854 -2.0284 -0.416574
upperneck 13.0018 -2.90658 3.7263
head 5.21941 -1.06829 1.04339
rclavicle -1.68967e-015 8.94531e-015
rhumerus -39.2063 -19.1496 -77.9334
rradius 33.5475
rwrist -0.47747
rhand -5.94189 -54.9145
rfingers 7.12502
rthumb 19.8882 276.083
lclavicle -1.68967e-015 8.94531e-015
lhumerus -33.2574 10.9923 77.4194
lradius 26.2267
lwrist -2.37615
lhand -21.9529 -12.119
lfingers 7.12502
lthumb 4.45423 17.8142
rfemur -24.3635 6.66314 20.4039
rtibia 7.44555
rfoot -20.0036 -5.34681
rtoes -23.2141
lfemur -26.7362 -9.11016 -18.4804
ltibia 12.5533
lfoot -11.2354 7.69147
ltoes -48.956
177
root 7.9145 16.2774 31.2352 -153.316 0.418853 177.727
lowerback -28.6346 -2.29334 -6.19701
upperback -0.389492 -1.46317 -0.034786
thorax 14.8954 -1.29507 2.71952
lowerneck -8.39144 -1.9967 -0.0634851
upperneck 14.1033 -2.81923 2.94886
head 5.68308 -1.02782 0.741957
rclavicle -6.95746e-015 -7.55382e-015
rhumerus -39.1856 -18.9431 -77.9451
rradius 33.5685
rwrist -0.602453
rhand -6.0992 -54.3694
rfingers 7.12502
rthumb 19.737 276.613
lclavicle -6.95746e-015 -7.55382e-015
lhumerus -33.257 11.1078 77.4652
lradius 26.2544
lwrist -2.38625
lhand -22.0623 -12.175
lfingers 7.12502
lthumb 4.34857 17.7603
rfemur -24.1817 6.42287 20.4222
rtibia 7.33884
rfoot -19.9647 -5.03109
rtoes -22.3805
lfemur -26.7257 -8.91088 -18.6123
ltibia 12.7961
lfoot -11.3635 7.39734
ltoes -48.6779
